<svg width="40" height="40" viewBox="0 0 40 40" fill="none" xmlns="http://www.w3.org/2000/svg">
  <path
    d="M12 20C11.4477 20 11 20.4477 11 21C11 21.5523 11.4477 22 12 22H28C28.5523 22 29 21.5523 29 21C29 20.4477 28.5523 20 28 20H12Z"
    fill="#78909C"/>
  <path
    d="M11 31C11 30.4477 11.4477 30 12 30H21C21.5523 30 22 30.4477 22 31C22 31.5523 21.5523 32 21 32H12C11.4477 32 11 31.5523 11 31Z"
    fill="#78909C"/>
  <path
    d="M12 25C11.4477 25 11 25.4477 11 26C11 26.5523 11.4477 27 12 27H28C28.5523 27 29 26.5523 29 26C29 25.4477 28.5523 25 28 25H12Z"
    fill="#78909C"/>
  <path fill-rule="evenodd" clip-rule="evenodd"
        d="M10 1C7.23858 1 5 3.23858 5 6V34C5 36.7614 7.23858 39 10 39H30C32.7614 39 35 36.7614 35 34V12C35 11.7348 34.8946 11.4804 34.7071 11.2929L24.7071 1.29289C24.5196 1.10536 24.2652 1 24 1H10ZM7 6C7 4.34315 8.34315 3 10 3H23V8C23 10.7614 25.2386 13 28 13H33V34C33 35.6569 31.6569 37 30 37H10C8.34315 37 7 35.6569 7 34V6ZM31.5858 11L25 4.41421V8C25 9.65685 26.3431 11 28 11H31.5858Z"
        fill="#78909C"/>
</svg>
