<svg width="32" height="32" viewBox="0 0 32 32" fill="none" xmlns="http://www.w3.org/2000/svg">
  <path
    d="M18.4504 15.5003C18.2197 16.6411 17.2103 17.5 15.9999 17.5C14.7895 17.5 13.7801 16.6411 13.5494 15.5003C13.4947 15.2297 13.7238 15.0036 13.9999 15.0036H17.9999C18.276 15.0036 18.5051 15.2297 18.4504 15.5003Z"
    fill="#78909C"
  />
  <path
    d="M12 12C12 12.5523 11.5523 13 11 13C10.4477 13 10 12.5523 10 12C10 11.4477 10.4477 11 11 11C11.5523 11 12 11.4477 12 12Z"
    fill="#78909C"
  />
  <path
    d="M21 13C21.5523 13 22 12.5523 22 12C22 11.4477 21.5523 11 21 11C20.4477 11 20 11.4477 20 12C20 12.5523 20.4477 13 21 13Z"
    fill="#78909C"
  />
  <path
    fill-rule="evenodd"
    clip-rule="evenodd"
    d="M10 5C6.68629 5 4 7.68629 4 11V18C4 21.3137 6.68629 24 10 24H11V27C11 27.3635 11.1973 27.6984 11.5152 27.8746C11.8332 28.0509 12.2217 28.0407 12.53 27.848L18.6868 24H22C25.3137 24 28 21.3137 28 18V11C28 7.68629 25.3137 5 22 5H10ZM6 11C6 8.79086 7.79086 7 10 7H22C24.2091 7 26 8.79086 26 11V18C26 20.2091 24.2091 22 22 22H18.4C18.2126 22 18.0289 22.0527 17.87 22.152L13 25.1958V23C13 22.4477 12.5523 22 12 22H10C7.79086 22 6 20.2091 6 18V11Z"
    fill="#78909C"
  />
</svg>
