<svg width="28" height="28" viewBox="0 0 28 28" fill="none" xmlns="http://www.w3.org/2000/svg">
  <path
    d="M18.7062 10.7124C19.0979 10.3207 19.0979 9.68555 18.7062 9.29381C18.3144 8.90206 17.6793 8.90206 17.2876 9.29381L14.02 12.5615L10.7525 9.294C10.3608 8.90226 9.72566 8.90226 9.33392 9.294C8.94217 9.68575 8.94217 10.3209 9.33392 10.7126L12.6014 13.9801L9.29381 17.2874C8.90206 17.6792 8.90206 18.3143 9.29381 18.7061C9.68555 19.0978 10.3207 19.0978 10.7124 18.7061L14.02 15.3987L17.2876 18.6663C17.6793 19.058 18.3144 19.058 18.7062 18.6663C19.0979 18.2745 19.0979 17.6394 18.7062 17.2477L15.4386 13.9801L18.7062 10.7124Z"
    fill="white"
  />
</svg>
