<svg width="40" height="40" viewBox="0 0 40 40" fill="none" xmlns="http://www.w3.org/2000/svg">
  <path
    d="M24.7062 16.7124C25.0979 16.3207 25.0979 15.6856 24.7062 15.2938C24.3144 14.9021 23.6793 14.9021 23.2876 15.2938L20.02 18.5615L16.7525 15.294C16.3608 14.9023 15.7257 14.9023 15.3339 15.294C14.9422 15.6857 14.9422 16.3209 15.3339 16.7126L18.6014 19.9801L15.2938 23.2874C14.9021 23.6792 14.9021 24.3143 15.2938 24.7061C15.6856 25.0978 16.3207 25.0978 16.7124 24.7061L20.02 21.3987L23.2876 24.6663C23.6793 25.058 24.3144 25.058 24.7062 24.6663C25.0979 24.2745 25.0979 23.6394 24.7062 23.2477L21.4386 19.9801L24.7062 16.7124Z"
    fill="#78909C"
  />
</svg>
