<svg width="32" height="32" viewBox="0 0 32 32" fill="none" xmlns="http://www.w3.org/2000/svg">
  <circle cx="16" cy="16" r="16" fill="#F1F3F4" />
  <path
    d="M16.0001 23C13.5009 23 10 22.5899 10 20C10 17.4101 14.0008 17 16.0001 17C17.9994 17 22 17.4101 22 20C22 22.5899 18.4992 23 16.0001 23ZM16.0001 9C16.7954 9 17.5582 9.31607 18.1206 9.87868C18.6831 10.4413 18.999 11.2044 18.999 12C18.999 12.7956 18.6831 13.5587 18.1206 14.1213C17.5582 14.6839 16.7954 15 16.0001 15C15.2047 15 14.4419 14.6839 13.8795 14.1213C13.3171 13.5587 13.0011 12.7956 13.0011 12C13.0011 11.2044 13.3171 10.4413 13.8795 9.87868C14.4419 9.31607 15.2047 9 16.0001 9Z"
    fill="#C6CACC"
  />
</svg>
