<svg width="14" height="14" viewBox="0 0 14 14" fill="none" xmlns="http://www.w3.org/2000/svg">
<path d="M8 5.58579L8 1C8 0.447715 7.55229 0 7 0C6.44772 0 6 0.447715 6 1L6 5.58579L4.70711 4.29289C4.31658 3.90237 3.68342 3.90237 3.29289 4.29289C2.90237 4.68342 2.90237 5.31658 3.29289 5.70711L6.29289 8.70711C6.68342 9.09763 7.31658 9.09763 7.70711 8.70711L10.7071 5.70711C11.0976 5.31658 11.0976 4.68342 10.7071 4.29289C10.3166 3.90237 9.68342 3.90237 9.29289 4.29289L8 5.58579Z" fill="#7C4DFF"/>
<path d="M1 8C1.55228 8 2 8.44771 2 9V11C2 11.5523 2.44772 12 3 12H11C11.5523 12 12 11.5523 12 11V9C12 8.44771 12.4477 8 13 8C13.5523 8 14 8.44771 14 9V11C14 12.6569 12.6569 14 11 14H3C1.34315 14 0 12.6569 0 11V9C0 8.44771 0.447715 8 1 8Z" fill="#7C4DFF"/>
</svg>
