<svg width="29" height="27" viewBox="0 0 29 27" fill="none" xmlns="http://www.w3.org/2000/svg">
  <path
    fill-rule="evenodd"
    clip-rule="evenodd"
    d="M5.90909 0H22.4545C25.718 0 28.3636 2.64559 28.3636 5.90909V15.3636C28.3636 18.6271 25.718 21.2727 22.4545 21.2727H17.7273V26.362C17.7273 26.7653 17.3321 27.0501 16.9495 26.9226L6.46475 23.4276C2.60406 22.1407 0 18.5278 0 14.4583V5.90909C0 2.64559 2.64559 0 5.90909 0ZM5.9091 7.09096C5.9091 6.43826 6.43822 5.90915 7.09092 5.90915H21.2727C21.9254 5.90915 22.4546 6.43827 22.4546 7.09097C22.4546 7.74367 21.9254 8.27278 21.2727 8.27278L7.09092 8.27278C6.43822 8.27278 5.9091 7.74366 5.9091 7.09096ZM5.9091 11.8182C5.9091 11.1655 6.43821 10.6364 7.09091 10.6364L14.1818 10.6364C14.8345 10.6364 15.3636 11.1655 15.3636 11.8182C15.3636 12.4709 14.8345 13 14.1818 13H7.09091C6.43821 13 5.9091 12.4709 5.9091 11.8182Z"
    fill="white"
  />
</svg>
