<svg width="16" height="16" viewBox="0 0 16 16" fill="none" xmlns="http://www.w3.org/2000/svg">
<path fill-rule="evenodd" clip-rule="evenodd" d="M8 0C3.58172 0 0 3.58172 0 8C0 12.4183 3.58172 16 8 16C12.4183 16 16 12.4183 16 8C16 3.58172 12.4183 0 8 0ZM6.35487 11.1322C6.64667 11.424 7.11978 11.424 7.41158 11.1322L12.3919 6.15196C12.7011 5.84268 12.7011 5.34124 12.3919 5.03196C12.0826 4.72268 11.5811 4.72268 11.2719 5.03196L7.07609 9.22773C6.96957 9.33424 6.79688 9.33424 6.69037 9.22773L5.12891 7.66627C4.81963 7.35699 4.31819 7.35699 4.00891 7.66627C3.69963 7.97555 3.69963 8.477 4.00891 8.78627L6.35487 11.1322Z" fill="#7ACC90"/>
</svg>
